<svg width="1200" height="1200" viewBox="0 0 1200 1200" fill="none" xmlns="http://www.w3.org/2000/svg" role="img" aria-labelledby="title desc">
  <title id="title">Qiblah social logo</title>
  <desc id="desc">A navy square Qiblah logo with a gold crescent moon, four point star, and wordmark.</desc>
  <defs>
    <radialGradient id="qiblah-navy-social" cx="0" cy="0" r="1" gradientUnits="userSpaceOnUse" gradientTransform="translate(600 520) rotate(90) scale(760)">
      <stop offset="0" stop-color="#102D47"/>
      <stop offset="1" stop-color="#061725"/>
    </radialGradient>
    <linearGradient id="qiblah-gold-social" x1="425" y1="347" x2="801" y2="873" gradientUnits="userSpaceOnUse">
      <stop offset="0" stop-color="#FFE0A2"/>
      <stop offset="0.5" stop-color="#F2BE6D"/>
      <stop offset="1" stop-color="#C98435"/>
    </linearGradient>
  </defs>
  <rect width="1200" height="1200" fill="url(#qiblah-navy-social)"/>
  <g transform="translate(404 326) scale(1.5)">
    <path d="M212 206C194.2 225.1 168.7 237 140.5 237C86.7 237 43 193.3 43 139.5S86.7 42 140.5 42S238 85.7 238 139.5C238 153.6 235 167.1 229.6 179.2" fill="none" stroke="url(#qiblah-gold-social)" stroke-width="46" stroke-linecap="round" stroke-linejoin="round"/>
    <path fill="url(#qiblah-gold-social)" d="M154 118l8 18 18 8-18 8-8 18-8-18-18-8 18-8 8-18Z"/>
  </g>
  <text x="600" y="838" text-anchor="middle" fill="url(#qiblah-gold-social)" font-family="'Arial Rounded MT Bold', 'Nunito Sans', Outfit, Arial, sans-serif" font-size="164" font-weight="900" letter-spacing="0">Qiblah</text>
</svg>
