<svg id="Layer_1" viewBox="0 0 64 64" xmlns="http://www.w3.org/2000/svg" data-name="Layer 1"><path d="m32 2c-9.914 0-17.98 8.066-17.98 17.98v26.41h-3.06c-.553 0-1 .448-1 1v5.01h-2.41c-.553 0-1 .448-1 1v6.99c0 .552.447 1 1 1h48.9c.553 0 1-.448 1-1v-6.99c0-.552-.447-1-1-1h-2.41v-5.01c0-.552-.447-1-1-1h-3.06v-26.41c0-9.914-8.066-17.98-17.98-17.98zm-15.98 17.98c0-8.812 7.169-15.98 15.98-15.98s15.98 7.168 15.98 15.98v26.41h-.98v-5.035c0-.552-.447-1-1-1s-1 .448-1 1v5.035h-28.98zm36.02 32.42h-30.589c-.553 0-1 .448-1 1s.447 1 1 1h33.999v4.99h-46.9v-4.99h8.611c.553 0 1-.448 1-1s-.447-1-1-1h-5.201v-4.01h40.08z"/><path d="m42.163 29.812c-.397-.226-.898-.153-1.215.178-1.767 1.843-4.248 2.678-6.807 2.288-3.251-.494-5.879-3.112-6.391-6.365-.405-2.572.424-5.069 2.273-6.851.329-.317.401-.818.175-1.215-.228-.397-.694-.592-1.135-.469-5.222 1.441-8.6 6.417-8.031 11.833.537 5.128 4.649 9.241 9.777 9.779.398.042.793.062 1.185.062 4.949 0 9.316-3.261 10.64-8.106.12-.441-.074-.908-.472-1.133zm-11.144 7.188c-4.194-.44-7.558-3.804-7.998-7.999-.333-3.182.993-6.179 3.347-8.055-.668 1.63-.883 3.439-.594 5.277.646 4.105 3.963 7.408 8.066 8.032 1.822.277 3.617.059 5.232-.607-1.87 2.356-4.872 3.683-8.054 3.352z"/><path d="m42.155 18.874-2.407-.35-1.077-2.182c-.336-.683-1.457-.683-1.793 0l-1.077 2.182-2.408.35c-.377.055-.689.319-.808.681-.117.362-.02.759.253 1.025l1.743 1.698-.411 2.398c-.064.375.09.754.397.978.175.126.381.191.588.191.159 0 .319-.038.466-.115l2.153-1.132 2.153 1.132c.338.177.747.147 1.054-.076.308-.224.462-.603.397-.979l-.412-2.398 1.743-1.698c.272-.266.37-.663.253-1.025-.118-.362-.431-.626-.808-.681zm-2.961 2.339c-.235.23-.343.561-.287.886l.157.919-.824-.434c-.293-.153-.639-.153-.932 0l-.825.434.157-.919c.056-.324-.052-.655-.287-.885l-.668-.651.923-.134c.326-.047.607-.252.753-.547l.413-.836.413.836c.146.295.427.5.753.547l.922.134-.668.651z"/><path d="m46 39.051c.553 0 1-.448 1-1v-1.285c0-.552-.447-1-1-1s-1 .448-1 1v1.285c0 .552.447 1 1 1z"/><path d="m17.839 18.903c-.553 0-1 .448-1 1v12.928c0 .552.447 1 1 1s1-.448 1-1v-12.928c0-.552-.447-1-1-1z"/></svg>