<svg id="Line" viewBox="0 0 64 64" xmlns="http://www.w3.org/2000/svg"><path d="m26.83868 38.46483c5.39835 3.96067 13.007.9078 15.60668-4.9065 2.77732-5.36606 2.2544-14.1381.20823-18.20177a1.00042 1.00042 0 0 0 -1.80806.85589 17.2298 17.2298 0 0 1 .90855 2.77075 21.20457 21.20457 0 0 0 -8.44053-4.63389 3.01559 3.01559 0 0 0 -1.66524-.00489 20.86473 20.86473 0 0 0 -10.79992 7.171 1.89183 1.89183 0 0 0 -.20222.511c-.46168 5.94658.7974 13.1172 6.19251 16.43841zm5.33768-22.19089a1.071 1.071 0 0 1 .60963.00488 18.858 18.858 0 0 1 9.54048 6.23252 20.42929 20.42929 0 0 1 -1.70714 10.22845 9.75471 9.75471 0 0 1 -5.36019 4.9649c-4.1456 1.89437-9.14862-1.05822-10.93426-4.96476a20.42889 20.42889 0 0 1 -1.70707-10.22859 18.86579 18.86579 0 0 1 9.55855-6.2374z"/><path d="m59.15538 53.645a8.29106 8.29106 0 0 0 -4.24445-3.53759 6.373 6.373 0 0 1 -3.06914-3.56986 8.63317 8.63317 0 0 0 -5.22044-5.01827c2.90245-5.55609 3.3957-12.12334 1.79469-22.83612a17.05129 17.05129 0 0 0 -10.34123-13.50271c-8.68805-3.9014-19.80641 2.19179-21.54671 13.50255a58.60771 58.60771 0 0 0 -.75958 13.88353c-.08012.87146-.65085 6.57421-2.0779 9.08228a9.12875 9.12875 0 0 0 -1.33851 5.77505c-2.72323 1.53643-8.905 5.09878-7.60293 8.25318a2.21364 2.21364 0 0 0 1.58582 1.18023l9.91771 1.75366a89.59219 89.59219 0 0 0 31.43058 0l9.94458-1.75366a2.20692 2.20692 0 0 0 1.52751-3.21227zm-1.7478 1.13817a.181.181 0 0 1 -.13042.10454l-9.94262 1.75366a87.67932 87.67932 0 0 1 -30.73255 0l-9.92113-1.75465c-.0718-.0127-.12212-.06546-.15289-.20419.78469-1.5756 3.01285-3.41475 6.30512-5.23668.27271.745 2.31762 5.2604 3.85235 3.89932a1.00105 1.00105 0 0 0 .045-1.41476c-4.44588-4.916-1.564-8.84774-1.32252-9.25463a16.54118 16.54118 0 0 0 1.5162-4.43467 23.38552 23.38552 0 0 0 3.14071 6.11974 1.00047 1.00047 0 0 0 1.6364-1.15092c-4.14721-5.89206-4.983-12.23259-3.19369-24.23174a15.13116 15.13116 0 0 1 9.18697-11.97472c7.56549-3.39788 17.23773 2.13209 18.74279 11.97453 1.56866 10.4977 1.06552 16.76051-1.79884 21.98907a12.72011 12.72011 0 0 0 -3.19408-.20443 1.00071 1.00071 0 0 0 .18319 1.993 10.93412 10.93412 0 0 1 3.27822.31751 6.87019 6.87019 0 0 1 5.07291 4.19413 8.34754 8.34754 0 0 0 4.09986 4.65917c1.39891.62967 2.90425 1.49586 3.32902 2.85671z"/><path d="m42.58646 49.27207c-12.68888 2.43657-19.812-1.92463-19.88231-1.96859a1.0006 1.0006 0 0 0 -1.07215 1.68921c.24418.15531 4.88478 3.03151 13.3727 3.03151a42.198 42.198 0 0 0 7.95888-.78646 1.00076 1.00076 0 0 0 -.37711-1.96567z"/></svg>