<svg id="mosque" height="512" viewBox="0 0 512 512" width="512" xmlns="http://www.w3.org/2000/svg"><path d="m462 477.6934h-33.0244v-230.7834h2.7812a26.4518 26.4518 0 0 0 26.4219-26.4219v-32.1229a26.4517 26.4517 0 0 0 -26.4219-26.4218h-4.0023c-7.4029-48.7281-47.4974-70.9125-89.7115-94.2613-25.6485-14.187-52.17-28.8569-75.167-50.6362a10.0847 10.0847 0 0 0 -13.7525 0c-22.9965 21.7793-49.518 36.4492-75.1665 50.6357-42.2132 23.3493-82.3081 45.5337-89.711 94.2618h-4.0028a26.4517 26.4517 0 0 0 -26.4219 26.4218v32.1231a26.4518 26.4518 0 0 0 26.4219 26.4217h2.7817v230.7834h-33.0249a10 10 0 0 0 0 20h412a10 10 0 0 0 0-20zm-388.1787-257.2051v-32.1231a6.4291 6.4291 0 0 1 6.4219-6.4218h351.5136a6.4291 6.4291 0 0 1 6.4219 6.4218v32.1231a6.4292 6.4292 0 0 1 -6.4219 6.4219h-351.5136a6.4292 6.4292 0 0 1 -6.4219-6.4219zm109.8159-135.3052c23.1804-12.8216 49.1628-27.219 72.3628-47.4056 23.2 20.1866 49.1831 34.584 72.3635 47.4056 39.5214 21.86 71.75 39.6915 79.0539 76.76h-302.8345c7.3041-37.0685 39.5329-54.9001 79.0543-76.76zm225.3384 161.7269v230.7834h-61.34v-157.0254a9.9994 9.9994 0 0 0 -6.6533-9.4229l-81.6356-28.9941a9.991 9.991 0 0 0 -6.6934 0l-81.6362 28.9941a9.9987 9.9987 0 0 0 -6.6533 9.4229v157.0254h-61.3389v-230.7834zm-224.6118 80.8185 71.6362-25.4424 71.6357 25.4424v149.9649h-143.2719z"/></svg>