<svg id="Layer_1" enable-background="new 0 0 500 500" viewBox="0 0 500 500" xmlns="http://www.w3.org/2000/svg"><path clip-rule="evenodd" d="m170.817 53.132c5.229 9.689 13.135 17.791 22.726 23.244-9.591 5.452-17.497 13.555-22.726 23.249-5.224-9.695-13.13-17.797-22.715-23.249 9.585-5.453 17.491-13.555 22.715-23.244zm-41.422 29.404c18.189 4.04 32.333 19.116 35.19 37.513 1.096 7.073 11.375 7.068 12.47 0 2.857-18.397 17.001-33.472 35.19-37.513 6.536-1.45 6.542-10.866 0-12.317-18.189-4.04-32.333-19.111-35.19-37.513-1.094-7.07-11.374-7.074-12.47 0-2.857 18.402-17.001 33.473-35.19 37.513-6.549 1.453-6.534 10.87 0 12.317zm116.769 34.351c14.267-15.222 30.607-8.007 42.611 3.261 2.546 2.388 6.538 2.263 8.926-.278 8.517-9.078 25.338-21.908 42.322-5.97 10.722 10.071 11.267 27.142 1.21 37.867l-45.446 48.423-48.423-45.44c-10.723-10.067-11.272-27.138-1.2-37.863zm54.502-49.039c-9.684 10.311-11.892 25.245-6.205 37.693 18.02-15.278 38.26-15.79 54.197-.834 7.65 7.175 12.044 16.935 12.382 27.48.358 11.257-3.642 20.713-11.194 28.832l12.808 12.023 56.722-60.446c12.944-13.789 12.252-35.528-1.537-48.472-17.978-16.863-37.978-9.693-53.952 7.372-2.393 2.556-6.387 2.665-8.915.289-16.967-15.95-37.396-21.992-54.306-3.937zm-61.939 96.099 51.149 48.003c3.587 3.37 9.203 3.167 12.546-.393l38.788-41.335 15.109 14.187c3.8 3.566 9.792 3.38 13.364-.425l58.897-62.752c17.699-18.865 16.755-48.608-2.11-66.307-21.511-20.191-46.994-15.401-67.457 3.631-21.62-17.693-47.367-20.853-67.55.654-10.256 10.932-14.373 25.654-12.094 39.65-15.278-6.363-30.506-3.293-42.403 9.389-14.84 15.804-14.044 40.861 1.761 55.698zm165.78 84.098c-3.277-5.136-7.617-9.563-12.688-12.939 5.082-3.381 9.411-7.797 12.688-12.944 3.271 5.147 7.606 9.563 12.688 12.944-5.082 3.375-9.416 7.803-12.688 12.939zm29.852-19.1c6.556 1.463 6.539 10.876 0 12.323-12.214 2.704-21.706 12.829-23.625 25.185-1.094 7.063-11.365 7.051-12.464 0-1.919-12.355-11.412-22.48-23.614-25.185-6.553-1.45-6.554-10.865 0-12.323 12.203-2.71 21.695-12.829 23.614-25.179 1.101-7.066 11.369-7.077 12.464 0 1.919 12.355 11.412 22.469 23.625 25.179zm-16.929 147.771c1.832-13.707-1.08-28.304-8.604-42.791-22.082-42.494-76.382-72.133-128.988-77.757 2.942 7.466 5.611 15.294 7.846 23.135 52.325 10.774 102.865 40.544 123.023 79.295 3.157 6.063 5.398 12.126 6.723 18.118zm-128.896 25.103c10.664-32.396 11.312-70.816 2.677-108.808 46.677 11.051 91.113 38.336 108.302 71.405 3.435 6.608 5.561 13.157 6.374 19.476-20.888 22.84-67.948 29.961-117.353 17.927zm115.019 2.296c.289-.736.556-1.483.801-2.241-11.466 8.064-26.406 13.664-44.088 16.439-23.396 3.675-49.633 2.083-76.214-4.597-3.124 7.279-6.75 13.986-10.829 20.043 29.405 7.895 58.586 9.215 83.013 3.631 19.493-4.444 34.056-12.857 42.322-24.209.054-.087.12-.169.169-.257 1.996-2.77 3.61-5.714 4.814-8.784zm-174.477 51.007c48.914-19.912 69.366-96.753 45.506-175.666-12.132-40.141-33.799-74.698-60.991-97.282-25.196-20.937-52.202-29.105-76.498-23.255 17.835 2.137 36.438 11.979 54.159 28.947 51.528 49.358 80.51 145.236 64.944 214.874-5.103 22.803-14.438 40.654-27.12 52.382zm-60.653-154.985c9.416-19.313 29.454-33.767 56.536-40.637 2.334 5.207 4.526 10.572 6.559 16.063-27.245 2.317-49.153 10.992-63.095 24.574zm75.532 99.501c-1.97 8.344-3.606 14.03-6.597 21.074-24.187-11.341-44.492-26.619-57.572-43.434-13.435-17.268-18.304-35.059-13.724-50.146.033-.109.06-.207.098-.305 10.006 27.703 38.576 54.786 77.795 72.811zm-68.689-88.269c12.11-13.189 33.614-21.711 60.489-23.467 10.671 33.96 14.485 68.926 10.474 98.858-39.666-19.051-67.441-48.445-70.963-75.391zm44.764 134.898c-38.783-5.747-80.429-55.435-99.845-119.67-19.411-64.229-12.268-128.672 16.837-154.941 14.7 2.17 30.31 10.779 45.495 25.326 14.024 13.435 26.57 30.85 36.88 50.936-33.734 9.204-57.654 29.465-66.198 56.395-4.089 12.895-4.454 26.548-1.08 40.571 3.539 31.782 33.516 65.44 79.524 87.08-3.401 5.623-7.294 10.41-11.613 14.303zm-17.568 10.104-2.541.698c-21.766 5.198-44.62-6.772-63.297-24.661-48.382-46.34-75.992-137.635-61.367-203.01 4.706-21.014 13.217-37.087 24.64-46.984.125-.087.245-.18.354-.278 4.008-3.424 8.353-6.074 12.977-7.911l.011-.011 3.511-1.221c.905-.273 1.805-.518 2.715-.725-25.365 33.44-30.365 95.112-11.357 157.984 19.002 62.861 57.332 111.442 96.971 125.237-.866.325-1.733.614-2.617.882zm118.04-204.477c-15.332-4.82-30.888-7.813-46.308-8.899-13.194-28.461-31.264-52.855-52.544-70.532-29.825-24.77-62.441-33.522-91.835-24.639-14.432 4.362-27.191 12.72-37.943 24.841-13.604 11.668-23.587 30.119-28.925 53.984-15.567 69.656 13.405 165.493 64.949 214.869 19.411 18.593 39.879 28.625 59.246 29.356 5.725 1.145 11.396 1.723 16.979 1.723 23.525 0 44.88-10.194 60.762-28.074 33.069 9.667 66.35 11.515 94.169 5.169 22.567-5.142 39.672-15.25 49.731-29.083 8.686-8.724 14.885-18.816 18.435-30.01 6.265-19.765 3.779-41.367-7.197-62.485-17.471-33.609-54.673-62.104-99.519-76.22z" fill-rule="evenodd"/></svg>