<svg id="Layer_1" enable-background="new 0 0 1580 1580" height="512" viewBox="0 0 1580 1580" width="512" xmlns="http://www.w3.org/2000/svg"><g fill="rgb(0,0,0)"><path d="m1534 1426.39h-287.24c-5.04 0-9.95-1.58-14.03-4.53l-456.75-329.21c-10.75-7.75-13.19-22.75-5.44-33.5s22.75-13.19 33.5-5.44l450.47 324.68h205.15l-540.08-389.27c-10.75-7.75-13.19-22.75-5.44-33.5s22.75-13.19 33.5-5.44l600.38 432.73c8.45 6.09 12.01 16.93 8.81 26.84-3.19 9.92-12.42 16.64-22.83 16.64z"/><path d="m646.35 993.66c-4.86 0-9.77-1.47-14.01-4.53l-530.6-382.44c-41.6-29.98-69.03-74.36-77.25-124.98-8.21-50.61 3.77-101.39 33.76-142.99 7.75-10.75 22.75-13.19 33.5-5.44l712.28 513.39c10.75 7.75 13.19 22.75 5.44 33.5s-22.75 13.19-33.5 5.44l-691.21-498.2c-13.18 26.65-17.74 56.67-12.89 86.6 6.16 37.96 26.73 71.24 57.93 93.73l530.6 382.44c10.75 7.75 13.19 22.75 5.44 33.5-4.69 6.51-12.04 9.98-19.49 9.98z"/><path d="m333.25 1426.39h-287.25c-10.41 0-19.64-6.72-22.84-16.63s.36-20.75 8.81-26.84l1456.28-1049.64c10.75-7.75 25.75-5.32 33.5 5.44 29.98 41.59 41.97 92.38 33.75 142.99-8.21 50.61-35.65 95-77.25 124.98l-1130.97 815.16c-4.09 2.95-9 4.54-14.03 4.54zm-212.9-48h205.15l1124.7-810.64c31.2-22.48 51.77-55.77 57.93-93.73 4.86-29.94.29-59.95-12.89-86.6z"/><path d="m789.98 682.24c-4.86 0-9.77-1.47-14.01-4.53l-532.02-383.45-88 115.65c-8.03 10.55-23.08 12.59-33.63 4.57-10.55-8.03-12.59-23.08-4.57-33.63l102.16-134.26c7.88-10.36 22.58-12.55 33.13-4.94l550.99 397.13c10.75 7.75 13.19 22.75 5.44 33.5-4.69 6.5-12.04 9.96-19.49 9.96z"/><path d="m790 507.56c-4.92 0-9.84-1.51-14.03-4.53-37.71-27.18-51.76-49.61-64.16-69.39-11.52-18.38-21.46-34.25-51.55-55.94s-48.29-26.1-69.37-31.21c-22.69-5.5-48.41-11.74-86.12-38.92-35-25.23-52.74-41.35-69.91-56.95-13.32-12.11-26.07-23.69-46.9-39.61l-77.75 102.18c-8.03 10.55-23.08 12.59-33.63 4.57-10.55-8.03-12.59-23.08-4.57-33.63l92.1-121.04c7.88-10.36 22.58-12.55 33.13-4.94 35 25.23 52.74 41.35 69.9 56.95 16.91 15.37 32.89 29.89 65.69 53.53 30.09 21.69 48.29 26.1 69.37 31.21 22.69 5.5 48.41 11.74 86.12 38.92s51.76 49.61 64.16 69.39c9.5 15.17 17.94 28.63 37.52 45.07 19.58-16.43 28.01-29.9 37.52-45.07 12.4-19.79 26.45-42.21 64.16-69.39s63.43-33.42 86.12-38.92c21.08-5.11 39.28-9.53 69.37-31.21 32.8-23.64 48.77-38.16 65.69-53.53 17.16-15.59 34.9-31.72 69.91-56.95 10.56-7.61 25.25-5.42 33.13 4.94l92.1 121.04c8.03 10.55 5.98 25.61-4.57 33.63-10.55 8.03-25.6 5.98-33.63-4.57l-77.76-102.19c-20.84 15.92-33.58 27.5-46.9 39.61-17.16 15.59-34.9 31.72-69.9 56.94-37.71 27.18-63.43 33.42-86.12 38.92-21.08 5.11-39.28 9.53-69.37 31.21s-40.03 37.56-51.55 55.94c-12.4 19.79-26.45 42.21-64.16 69.39-4.2 3.04-9.12 4.55-14.04 4.55z"/><path d="m790 682.24c-13.26 0-24-10.74-24-24v-174.68c0-13.26 10.74-24 24-24s24 10.74 24 24v174.68c0 13.26-10.74 24-24 24z"/><path d="m790.02 682.24c-7.45 0-14.8-3.46-19.49-9.97-7.75-10.75-5.32-25.75 5.44-33.5l550.99-397.13c10.56-7.61 25.25-5.42 33.13 4.94l102.16 134.26c8.03 10.55 5.98 25.61-4.57 33.63-10.55 8.03-25.6 5.98-33.63-4.57l-88-115.65-532.02 383.46c-4.24 3.06-9.15 4.53-14.01 4.53z"/><circle cx="790" cy="969.66" r="25.94"/></g></svg>