<svg id="Layer_1" enable-background="new 0 0 512 512" height="512" viewBox="0 0 512 512" width="512" xmlns="http://www.w3.org/2000/svg"><g><path d="m494.192 428h-86.087l.095-225.364c-2.318-102.252-46.874-125.796-89.96-148.614-20.005-10.594-40.691-21.522-57.071-40.663-1.293-1.512-3.183-2.369-5.17-2.369-.021 0-.043.008-.063.008-2.012.018-3.911.929-5.19 2.482-16.073 19.517-35.989 30.088-57.074 41.28-42.974 22.806-87.409 46.289-89.875 148.032l.097 225.208h-86.086c-3.758 0-6.808 3.253-6.808 7.011v59.181c0 3.759 3.049 6.809 6.808 6.809h476.385c3.759 0 6.808-3.05 6.808-6.809v-59.181c-.001-3.758-3.05-7.011-6.809-7.011zm-376.786-225.046c2.269-93.616 41.31-114.284 82.646-136.222 19.317-10.254 39.229-20.795 56.036-38.745 16.959 17.529 36.664 27.976 55.781 38.101 41.442 21.947 80.586 42.582 82.721 136.694l-.097 225.218h-40.438c4.651-6 7.313-12.916 7.313-21.091 0-9.826-3.752-18.237-10.86-24.949 9.088-.374 16.093-2.302 19.391-7.631 1.836-2.976 3.13-7.975-1.147-14.984-.864-1.416-2.217-2.462-3.803-2.952l-37.485-11.56c-.347-2.476-2.043-4.653-4.547-5.503l-49.374-16.769-23.004-85.839c-.468-2.021-1.668-4.126-3.361-6.233l6.405-20.339c13.413-7.112 22.219-22.976 22.219-40.596 0-3.057-.099-6.082-.615-9.044.411-.877.814-1.852.814-2.883v-20.167c0-14.801-15.855-25.138-37.999-25.138-22.146 0-38.001 10.337-38.001 25.138v20.167c0 1.034.459 2.011.871 2.889-.517 2.962-.672 5.986-.672 9.039 0 10.196 2.953 19.916 8.28 27.776l-3.939 12.298c-18.787 4.579-30.541 31.106-30.541 49.895v107.903c0 10.285 4.561 19.979 11.74 27.085-3.45 1.576-6.485 3.597-9.237 5.421-2.283 1.515-4.421 2.947-6.421 3.896-2.322 1.104-4.888 2.014-7.38 2.892-4.741 1.678-9.64 3.309-13.522 6.505-5.478 4.362-8.56 9.773-8.775 14.773h-22.898zm80.723 202.462c.386.033 2.137.221 4.048.432l.013 22.354-47.078-.015c-.397.024-.704.008-.951-.023.326-.851 1.258-2.401 3.59-4.261 2.115-1.74 5.699-3.006 9.495-4.348 2.818-.997 5.734-2.025 8.691-3.43 2.88-1.365 5.55-3.137 8.132-4.854 5.009-3.323 9.329-6.187 14.06-5.855zm17.66.584h69.132c3.758 0 6.807-3.242 6.807-7s-3.048-7-6.807-7h-72.257c-.797 0-1.586.121-2.364.046-.139-.014-.159.065-.297.062-12.408-1.788-22.003-12.571-22.003-24.68v-107.904c0-14.459 9.801-36.537 22.098-36.972 6.02.947 25.345 12.685 27.295 17.465l23.974 89.579c.587 2.195 2.218 3.952 4.368 4.684l46.776 15.888-3.789 14.117-53.671-14.383c-3.315-.886-7.49-2.773-8.55-6.725l-19.264-71.896c-.973-3.631-4.706-5.775-8.333-4.813-3.632.973-5.786 4.707-4.813 8.335l19.264 71.899c2.14 7.976 8.594 13.782 18.171 16.346l60.241 16.148c.005.001.01.002.016.003l9.316 2.68c12.161 3.26 26.655 10.16 26.655 25.03 0 14.641-12.502 21.091-24.895 21.091h-107.06zm46.211-255h-48v-13.54c0-7.216 12.202-11.527 24.001-11.527 11.797 0 23.999 4.312 23.999 11.527zm-.145 13c.221 2 .333 3.611.333 5.338 0 13.454-6.751 25.389-16.799 29.537-1.863.767-3.289 2.376-3.896 4.299l-5.491 17.457c-5.81-4-12.322-7.409-17.561-9.508l4.114-13c.69-2.184.237-4.563-1.205-6.34-4.791-5.9-7.429-14.009-7.429-22.446 0-1.726.112-3.336.334-5.336h47.6zm62.6 194.152 31.501 9.714c-6.323 1.317-20.225.143-25.328-.292-3.539-.301-6.333-.539-8.337-.539-.065 0-.144-.006-.215-.009zm162.545 128.848h-462v-45h184 113.86 164.14z"/></g></svg>