<svg enable-background="new 0 0 512 512" height="512" viewBox="0 0 512 512" width="512" xmlns="http://www.w3.org/2000/svg"><g id="_x32_4_Toilet"><g><path d="m383.114 6.214h-254.177c-42.337 0-76.783 34.422-76.783 76.734v346.106c0 42.309 34.445 76.732 76.783 76.732h254.177c42.312 0 76.732-34.422 76.732-76.732v-346.106c0-42.312-34.42-76.734-76.732-76.734zm-320.552 422.84v-346.106c0-36.572 29.775-66.327 66.375-66.327h121.859v478.756h-121.859c-36.6.001-66.375-29.751-66.375-66.323zm386.876 0c0 36.572-29.755 66.324-66.324 66.324h-121.91v-478.756h121.91c36.569 0 66.324 29.755 66.324 66.327z"/><path d="m356.8 174.044c19.448 0 35.274-15.823 35.274-35.274s-15.825-35.276-35.274-35.276c-19.454 0-35.279 15.825-35.279 35.276s15.825 35.274 35.279 35.274zm0-60.142c13.711 0 24.866 11.155 24.866 24.868 0 13.711-11.155 24.866-24.866 24.866-13.716 0-24.871-11.155-24.871-24.866 0-13.713 11.155-24.868 24.871-24.868z"/><path d="m384.227 181.819h-57.812c-19.642 0-35.624 15.983-35.624 35.627v84.51c0 8.83 7.186 16.013 16.013 16.013h15.276v70.956c0 10.799 8.782 19.583 19.581 19.583h27.32c10.799 0 19.586-8.784 19.586-19.583v-70.956h15.276c8.827 0 16.013-7.183 16.013-16.013v-84.51c0-19.644-15.983-35.627-35.629-35.627zm25.221 120.137c0 3.09-2.516 5.605-5.605 5.605h-15.276v-49.64-.018c0-2.874-2.328-5.204-5.204-5.204s-5.204 2.33-5.204 5.204v.018 54.844 76.16c0 5.059-4.116 9.175-9.178 9.175h-8.456v-85.335c0-2.874-2.328-5.204-5.204-5.204s-5.204 2.33-5.204 5.204v85.335h-8.456c-5.056 0-9.173-4.116-9.173-9.175v-131.004c0-.72-.146-1.405-.411-2.029-.786-1.875-2.636-3.193-4.798-3.193-2.876 0-5.204 2.33-5.204 5.204v49.658h-15.271c-3.09 0-5.605-2.516-5.605-5.605v-84.51c0-13.907 11.312-25.219 25.216-25.219h57.812c13.909 0 25.221 11.312 25.221 25.219z"/><path d="m156.679 174.044c19.448 0 35.274-15.823 35.274-35.274s-15.825-35.276-35.274-35.276-35.274 15.825-35.274 35.276 15.826 35.274 35.274 35.274zm0-60.142c13.711 0 24.866 11.155 24.866 24.868 0 13.711-11.155 24.866-24.866 24.866s-24.866-11.155-24.866-24.866c0-13.713 11.155-24.868 24.866-24.868z"/><path d="m221.362 291.812-17.177-91.96c-1.967-10.448-11.099-18.033-21.71-18.033h-51.571c-10.682 0-19.819 7.597-21.72 18.041l-17.167 91.937c-2.584 13.614 7.834 26.157 21.659 26.157h8.289v70.971c0 10.799 8.782 19.583 19.581 19.583h27.32c10.799 0 19.581-8.784 19.581-19.583v-70.971h11.201c13.823 0 24.227-12.525 21.714-26.142zm-88.99 97.113v-70.971h17.629v80.146h-8.456c-5.056 0-9.173-4.116-9.173-9.175zm45.666 0c0 5.059-4.116 9.175-9.173 9.175h-8.456v-80.147h17.629zm21.609-81.379h-85.971c-7.292 0-12.806-6.597-11.429-13.823l17.172-91.975c1.006-5.516 5.834-9.521 11.485-9.521h51.571c5.61 0 10.443 4.017 11.48 9.544l17.172 91.944c1.337 7.238-4.197 13.831-11.48 13.831z"/></g></g></svg>